<?xml version="1.0" encoding="UTF-8"?>
<svg width="100px" height="100px" viewBox="0 0 100 100" version="1.1" xmlns="http://www.w3.org/2000/svg" xmlns:xlink="http://www.w3.org/1999/xlink">
    <title>编组 6</title>
    <g id="页面-2" stroke="none" stroke-width="1" fill="none" fill-rule="evenodd">
        <g id="消息" transform="translate(-229.000000, -201.000000)">
            <g id="编组-6" transform="translate(229.000000, 201.000000)">
                <circle id="椭圆形备份-5" fill="#FFCB00" cx="50" cy="50" r="50"></circle>
                <g id="编组-9" transform="translate(27.000000, 29.000000)" fill="#FFFFFF">
                    <path d="M32.9047619,14.5714286 C40.1370622,14.5714286 46,20.4343664 46,27.6666667 C46,34.898967 40.1370622,40.7619048 32.9047619,40.7619048 L24.5662806,40.7619048 C21.9391964,40.7619048 19.8095238,38.6322322 19.8095238,36.005148 L19.8095238,27.6666667 C19.8095238,20.4343664 25.6724616,14.5714286 32.9047619,14.5714286 Z" id="矩形" opacity="0.5" transform="translate(32.904762, 27.666667) scale(-1, 1) translate(-32.904762, -27.666667) "></path>
                    <path d="M20.2142857,0.714285714 C30.9838383,0.714285714 39.7142857,9.44473309 39.7142857,20.2142857 C39.7142857,30.9838383 30.9838383,39.7142857 20.2142857,39.7142857 L6.66023166,39.7142857 C3.37637639,39.7142857 0.714285714,37.052195 0.714285714,33.7683398 L0.714285714,20.2142857 C0.714285714,9.44473309 9.44473309,0.714285714 20.2142857,0.714285714 Z" id="矩形"></path>
                </g>
            </g>
        </g>
    </g>
</svg>