<?xml version="1.0" encoding="UTF-8"?>
<svg width="81px" height="80px" viewBox="0 0 81 80" version="1.1" xmlns="http://www.w3.org/2000/svg" xmlns:xlink="http://www.w3.org/1999/xlink">
    <title>编组 7</title>
    <defs>
        <linearGradient x1="9.8466378%" y1="14.0841047%" x2="100%" y2="79.985745%" id="linearGradient-1">
            <stop stop-color="#23FFF4" offset="0%"></stop>
            <stop stop-color="#00A26A" offset="100%"></stop>
        </linearGradient>
        <linearGradient x1="9.8466378%" y1="18.3685097%" x2="100%" y2="76.4087473%" id="linearGradient-2">
            <stop stop-color="#23FFF4" offset="0%"></stop>
            <stop stop-color="#00A26A" offset="100%"></stop>
        </linearGradient>
    </defs>
    <g id="页面-2" stroke="none" stroke-width="1" fill="none" fill-rule="evenodd">
        <g id="发布" transform="translate(-488.000000, -1243.000000)">
            <g id="编组-3" transform="translate(423.000000, 1203.000000)">
                <g id="编组-7" transform="translate(65.000000, 40.000000)">
                    <rect id="矩形备份-8" x="0" y="0" width="80" height="80"></rect>
                    <g id="编组-7备份" transform="translate(2.000000, 2.000000)">
                        <rect id="矩形" fill="url(#linearGradient-1)" opacity="0.358491443" transform="translate(41.683769, 36.019808) rotate(16.000000) translate(-41.683769, -36.019808) " x="11.183769" y="8.17170708" width="61" height="55.6962025" rx="11.1392405"></rect>
                        <rect id="矩形" fill="url(#linearGradient-2)" x="0.683544304" y="17.1891163" width="65" height="55.6962025" rx="11.1392405"></rect>
                        <g id="编组-4" transform="translate(4.911392, 26.100509)" fill="#FFFFFF">
                            <path d="M39,15.7594937 C44.2686375,15.7594937 49.5372751,21.1569879 54.8059126,31.9519763 C55.6154252,33.6105836 54.9270909,35.6113876 53.2684807,36.4208944 C52.8119844,36.6436934 52.310704,36.7594937 51.8027391,36.7594937 L26.1972565,36.7594937 C24.3516473,36.7594926 22.8554854,35.2633307 22.8554854,33.4177215 C22.8554854,32.9097579 22.9712853,32.4084787 23.1940838,31.9519835 C28.4627226,21.1569903 33.7313613,15.7594937 39,15.7594937 Z" id="三角形备份-2" fill-opacity="0.5"></path>
                            <circle id="椭圆形" cx="34.7594937" cy="3.34177215" r="3.34177215"></circle>
                            <path d="M21.5,10.7594937 C27.9819066,10.7594937 34.4638132,17.8491179 40.9457198,32.0283665 C41.7130317,33.706902 40.9743531,35.6896583 39.2958231,36.4569821 C38.8597662,36.6563212 38.3859202,36.7594937 37.9064604,36.7594937 L5.09353946,36.7594937 C3.24793272,36.7594881 1.75177284,35.2633283 1.75177284,33.4177215 C1.75177284,32.9382605 1.85494555,32.4644134 2.05428527,32.0283554 C8.53619018,17.8491143 15.0180951,10.7594937 21.5,10.7594937 Z" id="三角形"></path>
                        </g>
                    </g>
                </g>
            </g>
        </g>
    </g>
</svg>