<?xml version="1.0" encoding="UTF-8"?>
<svg width="678px" height="160px" viewBox="0 0 678 160" version="1.1" xmlns="http://www.w3.org/2000/svg" xmlns:xlink="http://www.w3.org/1999/xlink">
    <defs>
        <linearGradient x1="11.9098274%" y1="47.2154785%" x2="95.9453861%" y2="52.0910496%" id="linearGradient-1">
            <stop stop-color="#FD6843" offset="0%"></stop>
            <stop stop-color="#FD8961" offset="100%"></stop>
        </linearGradient>
        <rect id="path-2" x="0" y="0" width="678" height="160" rx="10"></rect>
    </defs>
    <g stroke="none" stroke-width="1" fill="none" fill-rule="evenodd">
        <g transform="translate(-36.000000, -1967.000000)">
            <g transform="translate(36.000000, 1967.000000)">
                <g>
                    <mask id="mask-3" fill="white">
                        <use xlink:href="#path-2"></use>
                    </mask>
                    <use fill="url(#linearGradient-1)" xlink:href="#path-2"></use>
                    <g opacity="0.383603051" mask="url(#mask-3)" stroke-linecap="square">
                        <g transform="translate(-45.000000, 73.000000)">
                            <path d="M41.1841693,94 C-63.4361789,94 79.9294503,46.8176077 138.057143,50.8993741 C196.184835,54.9811406 186.493629,73.7134706 234.930116,73.7134706 C283.366603,73.7134706 283.366603,27 331.803089,27 C380.239576,27 380.239576,73.7134706 428.676063,73.7134706 C477.112549,73.7134706 477.112549,44.846824 525.549036,44.846824 C573.985523,44.846824 573.985523,73.7134706 622.422009,73.7134706 C670.858496,73.7134706 1017.85886,48.2723594 860.244514,44.5830968" id="直线" stroke="#FFEDC1" stroke-width="3" opacity="0.7"></path>
                            <path d="M28.8180741,79 C-75.8193704,79 133.795277,53.6482668 191.932469,55.8414548 C250.06966,58.0346427 240.37687,68.0997753 288.821272,68.0997753 C337.265674,68.0997753 337.265674,43 385.710076,43 C434.154478,43 434.154478,68.0997753 482.598879,68.0997753 C531.043281,68.0997753 531.043281,52.5893383 579.487683,52.5893383 C627.932085,52.5893383 627.932085,68.0997753 676.376486,68.0997753 C724.820888,68.0997753 1071.87796,54.4299244 914.237854,52.4476341" id="直线备份" stroke="#FFFFFF" stroke-width="1" opacity="0.4" transform="translate(477.500000, 61.000000) scale(1, -1) translate(-477.500000, -61.000000) "></path>
                            <path d="M45.72116,115 C-58.9684391,115 132.77625,55.0754287 190.942419,60.6629807 C249.108587,66.2505328 239.410967,93.0835953 287.879515,93.0835953 C336.348063,93.0835953 336.348063,38.6288803 384.816611,38.6288803 C433.285159,38.6288803 433.285159,93.0835953 481.753707,93.0835953 C530.222255,93.0835953 530.222255,0 578.690803,0 C627.159351,0 627.159351,93.0835953 675.627899,93.0835953 C724.096447,93.0835953 930.283673,43.6791317 772.564995,38.6288803" id="直线" stroke="#FFF1C9" stroke-width="5"></path>
                        </g>
                    </g>
                </g>
            </g>
        </g>
    </g>
</svg>