<?xml version="1.0" encoding="UTF-8"?>
<svg width="100px" height="100px" viewBox="0 0 100 100" version="1.1" xmlns="http://www.w3.org/2000/svg" xmlns:xlink="http://www.w3.org/1999/xlink">
    <title>编组 3</title>
    <g id="页面-2" stroke="none" stroke-width="1" fill="none" fill-rule="evenodd">
        <g id="消息" transform="translate(-36.000000, -201.000000)">
            <g id="编组-3" transform="translate(36.000000, 201.000000)">
                <circle id="椭圆形" fill="#FF657A" cx="50" cy="50" r="50"></circle>
                <g id="编组-4" transform="translate(26.343146, 31.343146)" fill="#FFFFFF">
                    <path d="M3.51471863,3.51471863 C8.20101013,-1.17157288 15.7989899,-1.17157288 20.4852814,3.51471863 L32.5060967,15.5355339 C36.8018639,19.8313011 36.8018639,26.7961159 32.5060967,31.0918831 L24.7279221,38.8700577 C23.9468735,39.6511063 22.6805435,39.6511063 21.8994949,38.8700577 L3.51471863,20.4852814 C-1.17157288,15.7989899 -1.17157288,8.20101013 3.51471863,3.51471863 Z" id="矩形" opacity="0.6"></path>
                    <path d="M43.1126984,3.51471863 C38.4264069,-1.17157288 30.8284271,-1.17157288 26.1421356,3.51471863 L14.1213203,15.5355339 C9.82555313,19.8313011 9.82555313,26.7961159 14.1213203,31.0918831 L21.8994949,38.8700577 C22.6805435,39.6511063 23.9468735,39.6511063 24.7279221,38.8700577 L43.1126984,20.4852814 C47.7989899,15.7989899 47.7989899,8.20101013 43.1126984,3.51471863 Z" id="矩形"></path>
                </g>
            </g>
        </g>
    </g>
</svg>