<?xml version="1.0" encoding="UTF-8"?>
<svg width="34px" height="34px" viewBox="0 0 34 34" version="1.1" xmlns="http://www.w3.org/2000/svg" xmlns:xlink="http://www.w3.org/1999/xlink">
    <title>编组 3</title>
    <g id="页面-2" stroke="none" stroke-width="1" fill="none" fill-rule="evenodd">
        <g id="发布" transform="translate(-50.000000, -1034.000000)">
            <g id="编组-3" transform="translate(50.000000, 1034.000000)">
                <path d="M8.40215378,1 L25.5978462,1 C28.5021802,1 30.9363437,3.19582927 31.2345613,6.08481221 L33.3549914,26.6264789 C33.6763407,29.7395506 31.4132025,32.523699 28.3001308,32.8450484 C28.1068212,32.8650029 27.9126131,32.875 27.7182763,32.875 L6.28172368,32.875 C3.1521101,32.875 0.615057011,30.3379469 0.615057011,27.2083333 C0.615057011,27.0139966 0.625054095,26.8197885 0.645008632,26.6264789 L2.76543874,6.08481221 C3.06365633,3.19582927 5.49781975,1 8.40215378,1 Z" id="矩形" fill="#FF9C31"></path>
                <path d="M10.2,11.7565476 C10.2,14.9755787 13.2444637,17.585119 17,17.585119 C20.7555363,17.585119 23.8,14.9755787 23.8,11.7565476" id="路径" stroke="#FFFFFF" stroke-width="3.4" stroke-linecap="round"></path>
            </g>
        </g>
    </g>
</svg>