<?xml version="1.0" encoding="UTF-8"?>
<svg width="38px" height="43px" viewBox="0 0 38 43" version="1.1" xmlns="http://www.w3.org/2000/svg" xmlns:xlink="http://www.w3.org/1999/xlink">
    <title>火</title>
    <g id="页面-2" stroke="none" stroke-width="1" fill="none" fill-rule="evenodd">
        <g id="话题首页" transform="translate(-623.000000, -560.000000)" fill="#FD6843" fill-rule="nonzero">
            <g id="编组-4" transform="translate(600.000000, 560.000000)">
                <g id="火" transform="translate(23.000000, 0.000000)">
                    <path d="M10.7314082,43 C7.83203399,37.0069686 9.35802044,33.5609756 11.6470001,30.4146341 C14.0885784,26.8188153 14.698973,23.3728223 14.698973,23.3728223 C14.698973,23.3728223 16.6827554,25.7700348 15.9197622,29.6655052 C19.2769324,25.9198606 19.8873269,19.9268293 19.429531,17.6794425 C27.0594632,22.9233449 30.4166334,34.4599303 25.9912727,42.8501742 C49.491464,29.6655052 31.7900212,10.0383275 28.7380483,7.94076655 C29.8062388,10.1881533 29.9588375,13.9337979 27.8224565,15.7317073 C24.3126876,2.54703833 15.6145649,0 15.6145649,0 C16.6827554,6.74216028 11.9521974,14.0836237 7.37423806,19.6271777 C7.22163941,16.9303136 7.06904077,15.1324042 5.54305432,12.4355401 C5.23785703,17.3797909 1.42289091,21.2752613 0.3547004,26.2195122 C-1.0186874,32.9616725 1.42289091,37.7560976 10.7314082,43 L10.7314082,43 Z" id="路径"></path>
                </g>
            </g>
        </g>
    </g>
</svg>