<?xml version="1.0" encoding="UTF-8"?>
<svg width="100px" height="100px" viewBox="0 0 100 100" version="1.1" xmlns="http://www.w3.org/2000/svg" xmlns:xlink="http://www.w3.org/1999/xlink">
    <title>编组 8</title>
    <g id="页面-2" stroke="none" stroke-width="1" fill="none" fill-rule="evenodd">
        <g id="消息" transform="translate(-614.000000, -201.000000)">
            <g id="编组-8" transform="translate(614.000000, 201.000000)">
                <circle id="椭圆形备份-7" fill="#6DA0FF" cx="50" cy="50" r="50"></circle>
                <g id="编组-5" transform="translate(31.000000, 27.000000)" fill="#FFFFFF">
                    <path d="M18.5483871,0 C27.1533398,0 34.1290323,6.97569245 34.1290323,15.5806452 L34.1290323,25.518462 C34.1290323,27.2627532 34.6453445,28.9680168 35.6129032,30.4193548 C36.5804619,31.8706929 37.0967742,33.5759565 37.0967742,35.3202477 L37.0967742,35.6129032 C37.0967742,37.2519418 35.7680709,38.5806452 34.1290323,38.5806452 L2.96774194,38.5806452 C1.32870332,38.5806452 2.00724339e-16,37.2519418 0,35.6129032 L0,35.3202477 C-2.13614071e-16,33.5759565 0.516312262,31.8706929 1.48387097,30.4193548 C2.45142967,28.9680168 2.96774194,27.2627532 2.96774194,25.518462 L2.96774194,15.5806452 L2.96774194,15.5806452 C2.96774194,6.97569245 9.94343438,0 18.5483871,0 Z" id="路径"></path>
                    <circle id="椭圆形" fill-opacity="0.5" cx="18.5483871" cy="38.5806452" r="6.67741935"></circle>
                </g>
            </g>
        </g>
    </g>
</svg>