<?xml version="1.0" encoding="UTF-8"?>
<svg width="100px" height="100px" viewBox="0 0 100 100" version="1.1" xmlns="http://www.w3.org/2000/svg" xmlns:xlink="http://www.w3.org/1999/xlink">
    <title>编组 7</title>
    <defs>
        <filter id="filter-1">
            <feColorMatrix in="SourceGraphic" type="matrix" values="0 0 0 0 1.000000 0 0 0 0 1.000000 0 0 0 0 1.000000 0 0 0 1.000000 0"></feColorMatrix>
        </filter>
    </defs>
    <g id="页面-2" stroke="none" stroke-width="1" fill="none" fill-rule="evenodd">
        <g id="消息" transform="translate(-421.000000, -201.000000)">
            <g id="编组-7" transform="translate(421.000000, 201.000000)">
                <circle id="椭圆形备份-6" fill="#5FF3C4" cx="50" cy="50" r="50"></circle>
                <g filter="url(#filter-1)" id="客服">
                    <g transform="translate(22.000000, 22.000000)">
                        <rect id="矩形" fill="#FFFFFF" fill-rule="nonzero" opacity="0" x="0" y="0" width="56" height="56"></rect>
                        <path d="M48.8591813,24.6050919 C48.7221482,13.2010503 39.4422613,4 28.0027316,4 C16.5632018,4 7.28331496,13.2065304 7.14628178,24.6050919 C5.23329861,26.1340336 4,28.4849869 4,31.1263843 C4,35.7351296 7.73826511,39.4725425 12.3480612,39.4725425 C14.3597083,39.4725425 16.2069156,38.7601324 17.6485046,37.5764357 L13.7129117,22.9007878 C13.2689242,22.8295468 12.813974,22.7802261 12.3480612,22.7802261 C12.0411069,22.7802261 11.7396339,22.7966663 11.4436423,22.8295468 C12.4467251,14.5765498 19.4737865,8.17581916 28.0027316,8.17581916 C36.5316766,8.17581916 43.558738,14.5765498 44.5618209,22.8350268 C44.2658292,22.8021464 43.9643562,22.7857061 43.6574019,22.7857061 C43.1914891,22.7857061 42.7365389,22.8350268 42.2925514,22.9062678 L38.3624399,37.5764357 C39.4751493,38.4916086 40.8290371,39.1218176 42.3089954,39.362941 C40.341199,41.4782509 37.8362325,43.0893938 35.0023863,43.9607261 L34.6570627,44.305971 C33.774569,42.683868 32.0698763,41.5659322 30.0911172,41.5659322 C27.2079391,41.5659322 24.8728938,43.9004453 24.8728938,46.7829661 C24.8728938,49.6654869 27.2079391,52 30.0911172,52 C32.4590505,52 34.4323283,50.4162576 35.0681623,48.257107 C40.8290371,46.8432469 45.652605,43.0510332 48.4206752,37.9710013 C50.5857994,36.4639799 52,33.9595844 52,31.1263843 C52.0054631,28.4849869 50.7721645,26.1395136 48.8591813,24.6050919 Z" id="路径" fill="#FFFFFF" fill-rule="nonzero"></path>
                    </g>
                </g>
            </g>
        </g>
    </g>
</svg>